<?xml version="1.0" encoding="UTF-8" standalone="no"?>
<svg
   xmlns:dc="http://purl.org/dc/elements/1.1/"
   xmlns:cc="http://creativecommons.org/ns#"
   xmlns:rdf="http://www.w3.org/1999/02/22-rdf-syntax-ns#"
   xmlns:svg="http://www.w3.org/2000/svg"
   xmlns="http://www.w3.org/2000/svg"
   xmlns:sodipodi="http://sodipodi.sourceforge.net/DTD/sodipodi-0.dtd"
   xmlns:inkscape="http://www.inkscape.org/namespaces/inkscape"
   inkscape:version="1.0 (4035a4fb49, 2020-05-01)"
   sodipodi:docname="X.Org_Logo.svg"
   id="svg20"
   version="1.1"
   height="431"
   width="431">
  <metadata
     id="metadata24">
    <rdf:RDF>
      <cc:Work
         rdf:about="">
        <dc:format>image/svg+xml</dc:format>
        <dc:type
           rdf:resource="http://purl.org/dc/dcmitype/StillImage" />
        <dc:title></dc:title>
      </cc:Work>
    </rdf:RDF>
  </metadata>
  <sodipodi:namedview
     inkscape:current-layer="svg20"
     inkscape:window-maximized="1"
     inkscape:window-y="48"
     inkscape:window-x="0"
     inkscape:cy="251.27207"
     inkscape:cx="290.94453"
     inkscape:zoom="1.3141358"
     showgrid="false"
     id="namedview22"
     inkscape:window-height="997"
     inkscape:window-width="1920"
     inkscape:pageshadow="2"
     inkscape:pageopacity="0"
     guidetolerance="10"
     gridtolerance="10"
     objecttolerance="10"
     borderopacity="1"
     bordercolor="#666666"
     pagecolor="#ffffff" />
  <style
     id="style2"
     type="text/css"><![CDATA[
#P1 {fill:url(#LO)}
rect {opacity:.40740739;fill:#000cff;width:.50507629;height:0}
]]></style>
  <defs
     id="defs9">
    <linearGradient
       y2="269.49396"
       x2="657.65295"
       y1="235.14877"
       x1="319.20822"
       gradientUnits="userSpaceOnUse"
       id="LO">
      <stop
         id="stop4"
         offset="0"
         style="stop-color:#e54c18" />
      <stop
         id="stop6"
         offset="1"
         style="stop-color:#fec350" />
    </linearGradient>
  </defs>
  <g
     id="g18"
     transform="translate(142.28386,18.002953)">
    <g
       id="g14"
       transform="translate(-413.2102,-40.70387)">
      <path
         id="path11"
         d="M 342.0739,390.70219 453.17118,245.44599 338.79445,85.733013 412.30881,85.794093 503.44682,211.37696 367.17669,390.70219 Z M 559.52169,390.8049 469.01289,265.00644 606.41773,85.596933 h 24.48173 L 519.34879,231.53848 633.03722,390.8049 Z" />
      <path
         style="fill:url(#LO)"
         d="m 486.41071,143.82651 c -8.85103,0 -18.30729,0.68536 -26.82011,1.50253 15.16593,19.77999 27.75007,36.52951 42.23287,55.55188 -8.12876,-17.49293 -24.83564,-34.26759 -19.05997,-42.89467 5.71717,-8.53969 16.25107,-7.10232 17.05346,-7.10232 16.88849,0 33.14525,1.90739 48.34375,5.4375 l 3.5625,-4.90625 c -20.27081,-5.21826 -42.28849,-7.58867 -65.3125,-7.58867 z m 91.46875,15.96367 -3.28125,4.6875 c 46.8258,18.33664 78.5,53.36029 78.5,93.49999 0,59.10603 -68.66485,107.0625 -153.28125,107.0625 -84.6164,-10e-6 -153.3125,-47.95648 -153.3125,-107.0625 1e-5,-32.18776 20.37158,-61.08002 52.59375,-80.71874 l -9.90625,-15.09375 c -50.54614,21.43183 -84.09374,59.04962 -84.09375,101.87499 0,66.63368 81.2225,120.6875 181.3125,120.6875 100.08999,0 181.34374,-54.05381 181.34375,-120.6875 0,-44.43292 -36.12255,-83.29245 -89.875,-104.24999 z"
         id="P1" />
    </g>
    <rect
       id="rect16"
       height="0"
       width="0.50507629"
       y="180.85307"
       x="322.36493" />
  </g>
</svg>
